<?xml version="1.0" encoding="UTF-8" standalone="no"?>
<!DOCTYPE svg PUBLIC "-//W3C//DTD SVG 1.1//EN" "http://www.w3.org/Graphics/SVG/1.1/DTD/svg11.dtd">
<svg width="100%" height="100%" viewBox="0 0 459 94" version="1.1" xmlns="http://www.w3.org/2000/svg" xmlns:xlink="http://www.w3.org/1999/xlink" xml:space="preserve" xmlns:serif="http://www.serif.com/" style="fill-rule:evenodd;clip-rule:evenodd;stroke-linejoin:round;stroke-miterlimit:2;">
    <g transform="matrix(5.69801,0,0,5.69801,100.462,-3.31624)">
        <g id="_59b1eaca-8239-455b-8b0c-5710b339cbaa" serif:id="59b1eaca-8239-455b-8b0c-5710b339cbaa">
            <path d="M1.13,4.05L1.13,13.73L7.52,13.73L7.52,12.4L2.56,12.4L2.56,4.05L1.13,4.05ZM9.39,7.99C9.94,7.62 10.57,7.41 11.35,7.41C12.42,7.41 13.08,7.8 13.08,9.11L13.08,9.37C12.49,9.11 11.79,8.97 11.13,8.97C9.49,8.97 8.3,9.83 8.3,11.45C8.3,13.08 9.48,13.83 10.96,13.83C11.77,13.83 12.53,13.61 13.15,13.2L13.15,13.73L14.38,13.73L14.38,9.03C14.38,6.85 13.19,6.15 11.51,6.15C10.28,6.15 9.41,6.52 8.86,6.93L9.39,7.99ZM11.26,12.73C10.32,12.73 9.56,12.33 9.56,11.38C9.56,10.39 10.39,9.95 11.45,9.95C11.97,9.95 12.57,10.05 13.08,10.23L13.08,12.29C12.53,12.57 11.84,12.73 11.26,12.73ZM16.45,3.85L16.45,13.73L17.71,13.73L17.71,12.8C18.19,13.44 18.93,13.92 19.94,13.92C21.99,13.92 22.76,11.96 22.76,10.04C22.76,8.12 21.99,6.15 19.94,6.15C18.97,6.15 18.26,6.59 17.78,7.18L17.78,3.39L16.45,3.85ZM19.63,7.36C21.03,7.36 21.49,8.64 21.49,10.02C21.49,11.42 21.03,12.68 19.61,12.68C18.73,12.68 18.16,12.21 17.78,11.48L17.78,8.57C18.16,7.88 18.73,7.36 19.63,7.36ZM27.5,6.15C25.66,6.15 24.36,7.49 24.36,10.02C24.36,12.57 25.65,13.92 27.5,13.92C29.32,13.92 30.62,12.57 30.62,10.02C30.62,7.49 29.3,6.15 27.5,6.15ZM27.5,7.38C28.59,7.38 29.36,8.29 29.36,10.04C29.36,11.77 28.59,12.68 27.5,12.68C26.38,12.68 25.63,11.77 25.63,10.04C25.63,8.29 26.39,7.38 27.5,7.38ZM37.17,6.59C36.92,6.36 36.53,6.15 35.87,6.15C34.97,6.15 34.26,6.52 33.74,7.22L33.74,6.33L32.48,6.33L32.48,13.73L33.81,13.73L33.81,8.74C34.23,7.7 34.86,7.41 35.62,7.41C36.06,7.41 36.41,7.5 36.68,7.77L37.17,6.59ZM38.56,4.05L38.56,13.73L39.98,13.73L39.98,9.45L44.42,9.45L44.42,13.73L45.85,13.73L45.85,4.05L44.42,4.05L44.42,8.12L39.98,8.12L39.98,4.05L38.56,4.05ZM47.99,6.33L47.99,11.21C47.99,13.08 49.03,13.92 50.53,13.92C51.52,13.92 52.3,13.54 52.86,12.81L52.86,13.73L54.12,13.73L54.12,6.33L52.79,6.33L52.79,11.34C52.37,12.33 51.73,12.66 50.95,12.66C50.01,12.66 49.32,12.17 49.32,10.99L49.32,6.33L47.99,6.33ZM56.25,3.85L56.25,13.73L57.51,13.73L57.51,12.8C57.99,13.44 58.73,13.92 59.74,13.92C61.8,13.92 62.57,11.96 62.57,10.04C62.57,8.12 61.8,6.15 59.74,6.15C58.77,6.15 58.06,6.59 57.58,7.18L57.58,3.39L56.25,3.85ZM59.43,7.36C60.83,7.36 61.29,8.64 61.29,10.02C61.29,11.42 60.83,12.68 59.42,12.68C58.53,12.68 57.96,12.21 57.58,11.48L57.58,8.57C57.96,7.88 58.53,7.36 59.43,7.36Z" style="fill:white;fill-rule:nonzero;"/>
        </g>
    </g>
    <g id="_83d5d677-ff76-477d-a248-adec39d9a076" serif:id="83d5d677-ff76-477d-a248-adec39d9a076" transform="matrix(1.02185,0,0,1.02185,-217.094,-214.578)">
        <path d="M297.284,285.435C296.888,284.801 296.303,284.308 295.611,284.026C296.039,283.362 296.232,282.574 296.159,281.788C296.067,280.759 295.527,279.82 294.684,279.223C294.545,279.121 294.397,279.031 294.244,278.952C294.654,278.361 294.877,277.663 294.877,276.93C294.877,275.981 294.508,275.087 293.836,274.415C293.171,273.746 292.265,273.371 291.322,273.374L288.283,273.374C288.548,272.866 288.687,272.3 288.687,271.727C288.687,269.777 287.084,268.171 285.134,268.167L280.717,268.167C280.648,268.15 280.577,268.141 280.506,268.141L267.166,268.141C266.019,268.138 264.917,268.594 264.108,269.407C263.489,268.55 262.493,268.041 261.436,268.04C259.84,268.043 258.463,269.2 258.185,270.771L248.825,270.771C248.315,270.788 247.905,271.211 247.905,271.722C247.905,272.232 248.315,272.655 248.825,272.672L258.131,272.672L258.131,286.37L248.799,286.37C248.277,286.37 247.848,286.799 247.848,287.321C247.848,287.843 248.277,288.272 248.799,288.272L258.18,288.272C258.447,289.855 259.83,291.026 261.435,291.029C261.984,291.029 262.525,290.892 263.008,290.629L272.954,300.576C273.619,301.245 274.525,301.62 275.468,301.617C276.417,301.617 277.311,301.248 277.983,300.576C278.651,299.911 279.026,299.006 279.024,298.063C279.024,297.113 278.654,296.219 277.989,295.555L275.111,292.626L275.098,292.616C275.094,292.612 275.093,292.608 275.088,292.604C274.891,292.417 274.779,292.156 274.78,291.884C274.78,291.327 275.226,290.874 275.776,290.874L281.843,290.875L287.828,290.874L293.679,290.875L293.84,290.874L294.265,290.875C294.713,290.875 295.154,290.791 295.567,290.626C296.927,290.097 297.825,288.779 297.82,287.32C297.822,286.683 297.651,286.056 297.326,285.508C297.315,285.482 297.301,285.458 297.284,285.435ZM262.841,287.725C262.841,288.496 262.212,289.125 261.44,289.125C260.672,289.124 260.04,288.493 260.038,287.725L260.038,271.342C260.038,270.57 260.667,269.941 261.44,269.941C262.212,269.941 262.841,270.57 262.841,271.342L262.841,287.725ZM294.872,288.86C294.681,288.935 294.477,288.974 294.272,288.974L293.844,288.973L275.778,288.973C275.235,288.439 274.503,288.139 273.741,288.139C272.147,288.139 270.836,289.45 270.836,291.044C270.836,292.638 272.147,293.949 273.741,293.949C273.744,293.949 273.746,293.949 273.749,293.949L273.758,293.959L276.641,296.894C276.954,297.207 277.126,297.62 277.126,298.063C277.126,298.503 276.954,298.917 276.641,299.23C276.328,299.543 275.913,299.715 275.472,299.715C275.031,299.715 274.616,299.543 274.303,299.231L264.352,289.28C264.601,288.816 264.743,288.287 264.743,287.725L264.743,272.473L264.744,272.467C264.744,271.82 264.996,271.21 265.454,270.753C265.907,270.296 266.525,270.04 267.169,270.042L271.018,270.042C271.087,270.058 271.157,270.066 271.228,270.066L285.137,270.066C286.044,270.068 286.788,270.814 286.788,271.721C286.788,272.158 286.615,272.578 286.307,272.888C285.998,273.199 285.576,273.374 285.137,273.372L278.76,273.373L277.416,273.373C276.894,273.373 276.465,273.802 276.465,274.324C276.465,274.846 276.894,275.275 277.416,275.275L278.76,275.275L291.324,275.273C291.765,275.273 292.18,275.446 292.493,275.758C292.806,276.07 292.977,276.485 292.977,276.927C292.979,277.731 292.391,278.425 291.598,278.555L278.71,278.555C278.637,278.555 278.567,278.565 278.499,278.579L278.077,278.579C277.572,278.602 277.169,279.024 277.169,279.53C277.169,280.036 277.572,280.458 278.077,280.481L291.325,280.481C291.462,280.481 291.597,280.47 291.733,280.455L292.618,280.457C292.931,280.457 293.233,280.543 293.494,280.708L293.523,280.726C293.534,280.733 293.545,280.743 293.557,280.75L293.576,280.764C294.014,281.072 294.274,281.575 294.272,282.11C294.272,283.02 293.532,283.761 292.623,283.762L290.843,283.762C290.826,283.761 290.808,283.762 290.791,283.764L285.211,283.764L278.571,283.762C278.049,283.762 277.62,284.191 277.62,284.713C277.62,285.235 278.049,285.664 278.571,285.664L280.349,285.664L280.361,285.665L290.84,285.665L290.888,285.664L292.625,285.664L294.269,285.665C294.851,285.665 295.378,285.962 295.681,286.458C295.687,286.466 295.692,286.476 295.698,286.483C295.847,286.737 295.925,287.025 295.925,287.319C295.925,287.999 295.506,288.613 294.872,288.86ZM298.459,229.857C297.794,229.188 296.887,228.813 295.944,228.815C294.994,228.815 294.102,229.185 293.436,229.85L290.507,232.728L290.497,232.741L290.485,232.751C290.298,232.948 290.038,233.059 289.766,233.058C289.208,233.058 288.756,232.611 288.756,232.062L288.756,213.996L288.758,213.572C288.758,213.123 288.673,212.683 288.508,212.27C287.979,210.91 286.66,210.011 285.201,210.017L285.198,210.017C284.564,210.017 283.942,210.187 283.395,210.509C283.374,210.521 283.344,210.538 283.31,210.562C282.679,210.956 282.188,211.54 281.908,212.229C281.243,211.801 280.454,211.609 279.667,211.683C278.639,211.775 277.701,212.314 277.103,213.156C277,213.295 276.91,213.442 276.833,213.597C276.239,213.183 275.533,212.962 274.809,212.963C273.86,212.963 272.967,213.333 272.296,214.005C271.627,214.67 271.251,215.576 271.254,216.519L271.254,219.559C270.745,219.291 270.178,219.151 269.602,219.152L269.601,219.152C267.652,219.155 266.049,220.758 266.046,222.707L266.046,227.123C266.029,227.192 266.021,227.264 266.02,227.335L266.021,236.371L266.02,240.674C266.017,241.821 266.474,242.923 267.287,243.732C266.43,244.351 265.92,245.346 265.919,246.404C265.922,248 267.079,249.377 268.65,249.655L268.65,265.667C268.65,266.188 269.079,266.618 269.601,266.618C270.122,266.618 270.551,266.188 270.551,265.667L270.551,249.708L284.25,249.708L284.25,265.693C284.25,266.215 284.679,266.644 285.201,266.644C285.723,266.644 286.152,266.215 286.152,265.693L286.152,249.658C287.734,249.391 288.905,248.008 288.908,246.403C288.908,245.854 288.771,245.313 288.508,244.83L298.457,234.883C299.126,234.218 299.501,233.312 299.498,232.369C299.502,231.427 299.127,230.521 298.459,229.857ZM285.607,247.807L285.212,247.807L285.203,247.806L285.196,247.807L269.611,247.807L269.602,247.806L269.593,247.807L269.225,247.807C268.456,247.806 267.823,247.173 267.822,246.404C267.822,245.631 268.452,245.002 269.225,245.002L285.606,245.002C286.361,245.022 286.972,245.649 286.972,246.405C286.972,247.16 286.362,247.787 285.607,247.807ZM297.115,233.539L287.162,243.491C286.684,243.233 286.15,243.098 285.607,243.099L270.351,243.099C269.708,243.101 269.09,242.845 268.635,242.39C268.179,241.936 267.923,241.318 267.925,240.675L267.925,236.827C267.941,236.758 267.949,236.687 267.949,236.616L267.949,222.708C267.949,221.796 268.692,221.055 269.603,221.055C270.044,221.055 270.459,221.226 270.772,221.539C271.085,221.851 271.255,222.267 271.255,222.708L271.255,230.428C271.255,230.95 271.684,231.379 272.206,231.379C272.728,231.379 273.157,230.95 273.157,230.428L273.157,216.52C273.157,216.517 273.157,216.515 273.157,216.512C273.157,215.61 273.9,214.867 274.802,214.867C274.804,214.867 274.807,214.867 274.809,214.867C275.614,214.864 276.308,215.452 276.439,216.246L276.439,224.672L276.437,224.682L276.439,224.691L276.439,229.133C276.439,229.206 276.448,229.276 276.463,229.343L276.463,229.766C276.463,230.288 276.892,230.717 277.414,230.717C277.936,230.717 278.365,230.288 278.365,229.766L278.365,216.519C278.365,216.381 278.353,216.245 278.339,216.11L278.34,215.224C278.34,214.911 278.427,214.608 278.591,214.348L278.608,214.322C278.615,214.31 278.625,214.299 278.632,214.288L278.648,214.267C278.926,213.871 279.367,213.619 279.849,213.578C280.347,213.526 280.817,213.709 281.162,214.055C281.475,214.368 281.646,214.783 281.645,215.225L281.645,217L281.646,217.048L281.646,222.519L281.645,222.559L281.645,229.271C281.645,229.793 282.074,230.222 282.596,230.222C283.118,230.222 283.547,229.793 283.547,229.271L283.547,227.498L283.548,227.482L283.548,217.003L283.547,216.948L283.547,213.576C283.545,212.987 283.86,212.439 284.37,212.144C284.621,211.997 284.907,211.92 285.197,211.92L285.199,211.92C286.105,211.922 286.85,212.665 286.854,213.571L286.857,214L286.858,214.164L286.857,216.338L286.858,225.995L286.857,232.062L286.857,232.065C286.866,233.654 288.176,234.957 289.765,234.957C290.542,234.957 291.287,234.645 291.833,234.093L291.841,234.085L294.776,231.201C295.085,230.89 295.506,230.716 295.945,230.717C296.385,230.717 296.801,230.889 297.114,231.201C297.427,231.513 297.598,231.929 297.598,232.37C297.598,232.812 297.427,233.227 297.115,233.539ZM214.72,226.574C215.114,227.204 215.697,227.694 216.385,227.974C215.957,228.639 215.764,229.429 215.839,230.216C215.931,231.244 216.469,232.181 217.31,232.779C217.356,232.814 217.422,232.862 217.502,232.909C217.584,232.96 217.668,233.007 217.753,233.052C217.339,233.645 217.118,234.351 217.119,235.074C217.119,236.024 217.489,236.916 218.161,237.588C218.833,238.26 219.725,238.63 220.675,238.63L223.715,238.63C223.449,239.139 223.311,239.704 223.311,240.278C223.311,242.228 224.914,243.834 226.864,243.838L231.282,243.838C231.351,243.854 231.421,243.862 231.492,243.863L240.528,243.862L244.832,243.862C245.979,243.865 247.081,243.409 247.89,242.597C248.509,243.456 249.506,243.966 250.565,243.966C252.161,243.966 253.54,242.806 253.813,241.233L263.553,241.233C264.058,241.21 264.461,240.788 264.461,240.282C264.461,239.776 264.058,239.354 263.553,239.331L253.865,239.331L253.865,225.634L263.577,225.634C264.099,225.634 264.528,225.205 264.528,224.683C264.528,224.161 264.099,223.732 263.577,223.732L253.816,223.732C253.549,222.149 252.166,220.978 250.561,220.975C249.992,220.975 249.456,221.12 248.988,221.374L239.042,211.427C238.377,210.758 237.471,210.382 236.528,210.385C235.578,210.385 234.685,210.755 234.015,211.427C233.346,212.092 232.97,212.998 232.973,213.941C232.973,214.891 233.343,215.783 234.009,216.449L236.887,219.378L236.899,219.388C237.103,219.575 237.218,219.841 237.216,220.118C237.216,220.675 236.77,221.129 236.221,221.129L236.219,221.129L230.153,221.128L217.73,221.128C217.284,221.127 216.842,221.211 216.428,221.376C215.068,221.905 214.169,223.224 214.175,224.683C214.175,225.352 214.364,226.008 214.72,226.574ZM249.156,224.278C249.19,223.533 249.813,222.939 250.559,222.939C251.304,222.939 251.927,223.533 251.961,224.278L251.961,240.658C251.961,241.432 251.332,242.061 250.558,242.061C249.785,242.061 249.156,241.431 249.156,240.658L249.156,224.278ZM217.125,223.143C217.316,223.066 217.52,223.028 217.727,223.028L218.153,223.029L236.221,223.029C237.81,223.021 239.114,221.711 239.114,220.122C239.114,219.345 238.803,218.6 238.25,218.054C238.247,218.051 238.245,218.046 238.241,218.043L235.357,215.109C235.046,214.8 234.871,214.379 234.873,213.94C234.873,213.499 235.045,213.084 235.357,212.771C235.669,212.458 236.085,212.287 236.526,212.287C236.968,212.287 237.382,212.459 237.695,212.771L247.645,222.722C247.396,223.187 247.255,223.716 247.255,224.278L247.255,239.534C247.257,240.178 247.001,240.796 246.544,241.25C246.09,241.706 245.472,241.962 244.829,241.96L240.979,241.96C240.911,241.944 240.841,241.935 240.771,241.935L226.862,241.935C225.955,241.933 225.211,241.187 225.211,240.28C225.211,239.843 225.384,239.423 225.692,239.113C226.002,238.802 226.423,238.628 226.862,238.629L234.582,238.629C235.104,238.629 235.533,238.2 235.533,237.678C235.533,237.156 235.104,236.727 234.582,236.727L220.674,236.727C220.232,236.727 219.817,236.555 219.505,236.243C219.194,235.934 219.019,235.513 219.021,235.074C219.021,234.633 219.193,234.217 219.505,233.905C219.751,233.659 220.061,233.501 220.398,233.445L233.288,233.446C233.361,233.446 233.431,233.436 233.499,233.421L233.922,233.421C234.444,233.421 234.873,232.992 234.873,232.47C234.873,231.948 234.444,231.519 233.922,231.519L220.674,231.52C220.535,231.52 220.398,231.53 220.262,231.545L219.379,231.545C219.07,231.545 218.766,231.458 218.504,231.294C218.493,231.286 218.484,231.282 218.472,231.275L218.447,231.256L218.421,231.236C217.983,230.929 217.723,230.426 217.725,229.891C217.725,229.449 217.898,229.033 218.209,228.722C218.518,228.412 218.938,228.237 219.376,228.238L221.157,228.238C221.172,228.236 221.188,228.238 221.204,228.237L226.681,228.237L226.716,228.238L226.788,228.237L233.427,228.238C233.949,228.238 234.378,227.809 234.378,227.287C234.378,226.765 233.949,226.336 233.427,226.336L231.648,226.336L231.638,226.335L221.158,226.335L221.109,226.336L217.732,226.336C217.142,226.338 216.594,226.023 216.298,225.512C216.152,225.26 216.075,224.974 216.075,224.683C216.075,223.998 216.487,223.394 217.125,223.143ZM246.077,265.597C246.077,264.714 245.733,263.885 245.109,263.26C244.63,262.78 244.014,262.46 243.346,262.345L243.346,246.404C243.346,245.882 242.917,245.453 242.395,245.453C241.873,245.453 241.444,245.882 241.444,246.404L241.444,262.293L227.746,262.293L227.746,246.404C227.746,245.882 227.317,245.453 226.795,245.453C226.273,245.453 225.844,245.882 225.844,246.404L225.844,262.343C224.262,262.61 223.091,263.993 223.088,265.598C223.088,266.166 223.233,266.703 223.487,267.171L213.541,277.116C212.872,277.781 212.496,278.688 212.499,279.631C212.499,280.581 212.869,281.473 213.541,282.145C214.206,282.814 215.112,283.189 216.055,283.186C217.004,283.186 217.898,282.816 218.563,282.15L221.491,279.273C221.494,279.268 221.497,279.264 221.501,279.26C221.505,279.257 221.51,279.254 221.513,279.25C221.699,279.053 221.96,278.941 222.231,278.943C222.788,278.943 223.241,279.389 223.241,279.938L223.242,279.94L223.241,286.005L223.241,298.427C223.241,298.876 223.325,299.315 223.489,299.731C224.019,301.09 225.337,301.988 226.796,301.984L226.799,301.984C227.466,301.984 228.119,301.796 228.684,301.441C229.317,301.047 229.809,300.463 230.09,299.772C231.672,300.791 233.804,300.38 234.895,298.847C234.997,298.707 235.087,298.559 235.165,298.404C235.758,298.817 236.464,299.039 237.187,299.038L237.189,299.038C238.139,299.038 239.031,298.668 239.703,297.996C240.372,297.331 240.747,296.424 240.744,295.481L240.744,292.442C241.253,292.711 241.82,292.85 242.396,292.849L242.397,292.849C244.346,292.846 245.949,291.243 245.952,289.294L245.952,284.876C245.968,284.807 245.976,284.737 245.977,284.666L245.977,271.326C245.977,270.171 245.527,269.086 244.711,268.267C245.568,267.649 246.077,266.654 246.077,265.597ZM244.073,275.177C244.057,275.246 244.048,275.316 244.048,275.387L244.048,289.296C244.048,290.207 243.306,290.948 242.395,290.948L242.394,290.948C241.956,290.95 241.535,290.775 241.226,290.465C240.915,290.156 240.741,289.735 240.742,289.297L240.742,281.574C240.742,281.052 240.313,280.623 239.791,280.623C239.269,280.623 238.84,281.052 238.84,281.574L238.84,282.234L238.839,282.235L238.84,289.296L238.84,295.483C238.84,295.924 238.668,296.341 238.356,296.652C238.047,296.963 237.626,297.138 237.188,297.136C236.746,297.136 236.332,296.964 236.019,296.652C235.776,296.41 235.614,296.097 235.559,295.758L235.56,282.87C235.559,282.799 235.551,282.728 235.535,282.659L235.535,282.235C235.535,281.713 235.106,281.284 234.584,281.284C234.062,281.284 233.633,281.713 233.633,282.235L233.633,295.482C233.633,295.621 233.644,295.757 233.659,295.895L233.658,296.777C233.658,297.091 233.571,297.394 233.407,297.653L233.388,297.686C233.382,297.695 233.376,297.703 233.369,297.711C233.064,298.163 232.552,298.434 232.006,298.431C232.004,298.431 232.002,298.431 232,298.431C231.096,298.431 230.352,297.687 230.352,296.783C230.352,296.781 230.352,296.78 230.352,296.778L230.352,295.001L230.351,294.95L230.351,289.37L230.352,282.73C230.352,282.208 229.923,281.779 229.401,281.779C228.879,281.779 228.45,282.208 228.45,282.73L228.45,284.503L228.448,284.519L228.449,289.373L228.449,289.41L228.448,289.445L228.449,294.999L228.45,295.05L228.45,298.427C228.45,299.008 228.154,299.536 227.658,299.839L227.631,299.856C227.379,300.004 227.091,300.083 226.799,300.083L226.798,300.083C226.118,300.085 225.505,299.666 225.259,299.032C225.183,298.84 225.144,298.636 225.144,298.43L225.145,298.003L225.144,297.837L225.144,286.006L225.145,279.94L225.145,279.936C225.679,279.393 225.979,278.661 225.979,277.899C225.979,276.305 224.668,274.994 223.074,274.994C221.48,274.994 220.169,276.305 220.169,277.899C220.169,277.902 220.169,277.905 220.169,277.908C220.167,277.911 220.162,277.913 220.16,277.915L217.227,280.8C216.917,281.111 216.496,281.285 216.057,281.284C215.615,281.284 215.201,281.112 214.888,280.8C214.576,280.487 214.404,280.072 214.404,279.631C214.404,279.19 214.576,278.775 214.888,278.462L224.84,268.511C225.318,268.768 225.852,268.902 226.395,268.902L241.65,268.902C242.298,268.902 242.907,269.154 243.364,269.612C243.822,270.071 244.074,270.679 244.074,271.328L244.074,275.177L244.073,275.177ZM242.773,267L226.392,267C225.619,267 224.99,266.371 224.99,265.598C224.99,264.825 225.619,264.196 226.392,264.196L226.788,264.196L226.795,264.197L226.802,264.196L242.388,264.196L242.395,264.197L242.402,264.196L242.773,264.196C243.545,264.196 244.175,264.825 244.175,265.598C244.175,266.371 243.546,267 242.773,267Z" style="fill:white;fill-rule:nonzero;"/>
    </g>
</svg>
